<?xml version="1.0" encoding="UTF-8"?>
<svg xmlns="http://www.w3.org/2000/svg" xmlns:xlink="http://www.w3.org/1999/xlink" width="24px" height="24px" viewBox="0 0 24 24" version="1.1">
<g id="surface1">
<path style=" stroke:none;fill-rule:nonzero;fill:rgb(18.039216%,17.647059%,18.82353%);fill-opacity:1;" d="M 24 12 C 24 5.371094 18.628906 0 12 0 C 5.371094 0 0 5.371094 0 12 C 0 18.628906 5.371094 24 12 24 C 18.628906 24 24 18.628906 24 12 Z M 24 12 "/>
<path style=" stroke:none;fill-rule:nonzero;fill:rgb(11.372549%,11.372549%,12.54902%);fill-opacity:1;" d="M 12 0 C 11.46875 0 10.945312 0.0351562 10.433594 0.101562 C 16.324219 0.867188 20.871094 5.902344 20.871094 12 C 20.871094 18.097656 16.324219 23.132812 10.433594 23.898438 C 10.945312 23.964844 11.46875 24 12 24 C 18.628906 24 24 18.628906 24 12 C 24 5.371094 18.628906 0 12 0 Z M 12 0 "/>
<path style=" stroke:none;fill-rule:nonzero;fill:rgb(87.843138%,87.843138%,89.019608%);fill-opacity:1;" d="M 12 2.21875 C 6.605469 2.21875 2.21875 6.605469 2.21875 12 C 2.21875 17.394531 6.605469 21.78125 12 21.78125 C 17.394531 21.78125 21.78125 17.394531 21.78125 12 C 21.78125 6.605469 17.394531 2.21875 12 2.21875 Z M 17.714844 8.597656 L 19.660156 7.28125 C 20.28125 8.285156 20.710938 9.425781 20.898438 10.640625 L 18.558594 10.894531 C 18.421875 10.066406 18.128906 9.292969 17.714844 8.597656 Z M 6.285156 15.402344 L 4.339844 16.71875 C 3.71875 15.714844 3.289062 14.574219 3.101562 13.359375 L 5.441406 13.105469 C 5.578125 13.933594 5.871094 14.707031 6.285156 15.402344 Z M 6.949219 9.011719 L 8.894531 10.34375 C 8.628906 10.835938 8.476562 11.402344 8.476562 12 C 8.476562 12.542969 8.601562 13.058594 8.824219 13.519531 L 6.824219 14.765625 C 6.382812 13.941406 6.128906 13 6.128906 12 C 6.128906 10.910156 6.429688 9.886719 6.949219 9.011719 Z M 12 14.738281 C 10.488281 14.738281 9.261719 13.511719 9.261719 12 C 9.261719 10.488281 10.488281 9.261719 12 9.261719 C 13.511719 9.261719 14.738281 10.488281 14.738281 12 C 14.738281 13.511719 13.511719 14.738281 12 14.738281 Z M 12.390625 8.5 L 12.390625 6.144531 C 14.097656 6.257812 15.605469 7.101562 16.605469 8.367188 L 14.664062 9.699219 C 14.097656 9.046875 13.296875 8.601562 12.390625 8.5 Z M 12.390625 5.359375 L 12.390625 3.007812 C 13.628906 3.0625 14.804688 3.367188 15.867188 3.875 L 14.765625 5.949219 C 14.035156 5.617188 13.234375 5.410156 12.390625 5.359375 Z M 11.609375 5.359375 C 10.519531 5.421875 9.5 5.75 8.613281 6.277344 L 7.300781 4.328125 C 8.566406 3.550781 10.035156 3.078125 11.609375 3.007812 Z M 11.609375 6.144531 L 11.609375 8.5 C 10.703125 8.601562 9.902344 9.046875 9.335938 9.699219 L 7.394531 8.367188 C 8.394531 7.101562 9.902344 6.257812 11.609375 6.144531 Z M 9.238281 14.183594 C 9.808594 14.902344 10.652344 15.394531 11.609375 15.5 L 11.609375 17.855469 C 9.8125 17.738281 8.234375 16.808594 7.238281 15.429688 Z M 11.609375 18.640625 L 11.609375 20.992188 C 10.371094 20.9375 9.195312 20.632812 8.132812 20.125 L 9.234375 18.050781 C 9.964844 18.382812 10.765625 18.589844 11.609375 18.640625 Z M 12.390625 18.640625 C 13.480469 18.578125 14.5 18.25 15.386719 17.722656 L 16.699219 19.671875 C 15.433594 20.449219 13.964844 20.921875 12.390625 20.992188 Z M 12.390625 17.855469 L 12.390625 15.5 C 13.347656 15.394531 14.191406 14.902344 14.761719 14.183594 L 16.761719 15.429688 C 15.765625 16.808594 14.1875 17.738281 12.390625 17.855469 Z M 17.175781 14.765625 L 15.175781 13.519531 C 15.398438 13.058594 15.523438 12.542969 15.523438 12 C 15.523438 11.402344 15.371094 10.835938 15.105469 10.34375 L 17.050781 9.011719 C 17.570312 9.886719 17.871094 10.910156 17.871094 12 C 17.871094 13 17.617188 13.941406 17.175781 14.765625 Z M 19.21875 6.632812 L 17.273438 7.953125 C 16.773438 7.300781 16.160156 6.746094 15.457031 6.316406 L 16.558594 4.242188 C 17.597656 4.855469 18.503906 5.667969 19.21875 6.632812 Z M 6.652344 4.765625 L 7.964844 6.714844 C 7.265625 7.25 6.675781 7.921875 6.234375 8.6875 L 4.128906 7.640625 C 4.757812 6.511719 5.621094 5.53125 6.652344 4.765625 Z M 3.777344 8.339844 L 5.882812 9.386719 C 5.539062 10.191406 5.347656 11.074219 5.347656 12 C 5.347656 12.109375 5.351562 12.21875 5.355469 12.328125 L 3.019531 12.582031 C 3.007812 12.390625 3 12.195312 3 12 C 3 10.695312 3.277344 9.457031 3.777344 8.339844 Z M 4.78125 17.367188 L 6.726562 16.046875 C 7.226562 16.699219 7.839844 17.253906 8.542969 17.683594 L 7.441406 19.757812 C 6.402344 19.144531 5.496094 18.332031 4.78125 17.367188 Z M 17.347656 19.234375 L 16.035156 17.285156 C 16.734375 16.75 17.324219 16.078125 17.765625 15.3125 L 19.871094 16.359375 C 19.242188 17.488281 18.378906 18.46875 17.347656 19.234375 Z M 20.222656 15.660156 L 18.117188 14.613281 C 18.460938 13.808594 18.652344 12.925781 18.652344 12 C 18.652344 11.890625 18.648438 11.78125 18.644531 11.671875 L 20.980469 11.417969 C 20.992188 11.609375 21 11.804688 21 12 C 21 13.304688 20.722656 14.542969 20.222656 15.660156 Z M 20.222656 15.660156 "/>
</g>
</svg>
